<?xml version="1.0" encoding="UTF-8" standalone="no"?>
<!-- Created with Inkscape (http://www.inkscape.org/) -->

<svg
   xmlns:dc="http://purl.org/dc/elements/1.1/"
   xmlns:cc="http://creativecommons.org/ns#"
   xmlns:rdf="http://www.w3.org/1999/02/22-rdf-syntax-ns#"
   xmlns:svg="http://www.w3.org/2000/svg"
   xmlns="http://www.w3.org/2000/svg"
   xmlns:sodipodi="http://sodipodi.sourceforge.net/DTD/sodipodi-0.dtd"
   xmlns:inkscape="http://www.inkscape.org/namespaces/inkscape"
   width="1280"
   height="1280"
   viewBox="0 0 338.66666 338.66668"
   version="1.1"
   id="svg8"
   inkscape:version="0.92.4 (5da689c313, 2019-01-14)"
   sodipodi:docname="赤身.svg"
   inkscape:export-filename="C:\Users\nao\OneDrive\画像\w_line\1赤身.png"
   inkscape:export-xdpi="96"
   inkscape:export-ydpi="96">
  <defs
     id="defs2" />
  <sodipodi:namedview
     id="base"
     pagecolor="#ffffff"
     bordercolor="#666666"
     borderopacity="1.0"
     inkscape:pageopacity="1"
     inkscape:pageshadow="2"
     inkscape:zoom="0.35"
     inkscape:cx="521.93388"
     inkscape:cy="553.69987"
     inkscape:document-units="mm"
     inkscape:current-layer="layer1"
     showgrid="false"
     units="px"
     inkscape:object-nodes="false"
     inkscape:object-paths="false"
     inkscape:window-width="1052"
     inkscape:window-height="818"
     inkscape:window-x="454"
     inkscape:window-y="213"
     inkscape:window-maximized="0" />
  <metadata
     id="metadata5">
    <rdf:RDF>
      <cc:Work
         rdf:about="">
        <dc:format>image/svg+xml</dc:format>
        <dc:type
           rdf:resource="http://purl.org/dc/dcmitype/StillImage" />
        <dc:title />
      </cc:Work>
    </rdf:RDF>
  </metadata>
  <g
     inkscape:label="赤身"
     inkscape:groupmode="layer"
     id="layer1"
     transform="translate(0,41.666683)"
     style="display:inline">
    <rect
       style="opacity:1;fill:#404040;fill-opacity:1;stroke:none;stroke-width:1.03673327;stroke-miterlimit:4;stroke-dasharray:none;stroke-opacity:1"
       id="rect4518"
       width="39.099659"
       height="39.099659"
       x="70.004463"
       y="11.06587" />
    <rect
       y="68.686424"
       x="70.004463"
       height="39.099659"
       width="39.099659"
       id="rect4520"
       style="opacity:1;fill:#404040;fill-opacity:1;stroke:none;stroke-width:1.03673327;stroke-miterlimit:4;stroke-dasharray:none;stroke-opacity:1" />
    <rect
       style="opacity:1;fill:#404040;fill-opacity:1;stroke:none;stroke-width:1.03673327;stroke-miterlimit:4;stroke-dasharray:none;stroke-opacity:1"
       id="rect4522"
       width="39.099659"
       height="39.099659"
       x="70.004463"
       y="126.30694" />
    <rect
       y="183.92752"
       x="70.004463"
       height="39.099659"
       width="39.099659"
       id="rect4524"
       style="opacity:1;fill:#404040;fill-opacity:1;stroke:none;stroke-width:1.03673327;stroke-miterlimit:4;stroke-dasharray:none;stroke-opacity:1" />
    <text
       xml:space="preserve"
       style="font-style:normal;font-variant:normal;font-weight:bold;font-stretch:normal;font-size:57.23935699px;line-height:1.25;font-family:'Yu Gothic';-inkscape-font-specification:'Yu Gothic Bold';letter-spacing:0px;word-spacing:0px;fill:#404040;fill-opacity:1;stroke:none;stroke-width:1.78872991"
       x="140.63931"
       y="45.531704"
       id="text4528"
       transform="matrix(0.86341292,0.01895416,-0.02541312,1.1576365,0,0)"><tspan
         sodipodi:role="line"
         id="tspan4526"
         x="140.63931"
         y="45.531704"
         style="fill:#404040;fill-opacity:1;stroke-width:1.78872991">≡</tspan></text>
    <path
       style="fill:#ffffec;fill-opacity:1;stroke:#404040;stroke-width:2.26852512;stroke-linecap:butt;stroke-linejoin:miter;stroke-miterlimit:4;stroke-dasharray:none;stroke-opacity:1"
       d="m 215.80789,80.509056 c 12.69608,-12.966145 29.27312,-21.945299 44.16948,-7.880719 14.55048,13.737978 12.42962,41.311753 -18.59144,39.984253 -21.59757,-0.92422 -46.37074,-10.86849 -25.57804,-32.103534 z"
       id="path4563"
       inkscape:connector-curvature="0"
       sodipodi:nodetypes="ssss" />
    <path
       sodipodi:nodetypes="sszs"
       inkscape:connector-curvature="0"
       id="path4565"
       d="m 222.23566,22.739213 c 8.97015,-9.735719 23.61062,-8.351854 32.55626,0.792441 12.33398,12.607873 -2.25373,21.616803 -18.13819,21.648962 -15.88446,0.03221 -25.99131,-9.880415 -14.41807,-22.441403 z"
       style="fill:#f08600;fill-opacity:1;stroke:#404040;stroke-width:2.26852512;stroke-linecap:butt;stroke-linejoin:miter;stroke-miterlimit:4;stroke-dasharray:none;stroke-opacity:1" />
    <rect
       y="-120.70631"
       x="256.94781"
       height="43.089287"
       width="43.089287"
       id="rect4583"
       style="opacity:1;fill:#969696;fill-opacity:1;stroke:none;stroke-width:1.14251888;stroke-miterlimit:4;stroke-dasharray:none;stroke-opacity:1" />
    <path
       style="fill:#a0a0a0;stroke:none;stroke-width:2.85714293"
       d=""
       id="path4593"
       inkscape:connector-curvature="0"
       transform="matrix(0.26458333,0,0,0.26458333,0,-41.666683)" />
    <g
       id="g4620"
       transform="matrix(0.9074101,0,0,0.9074101,15.001666,-9.4221425)">
      <g
         id="g4561"
         transform="translate(0,125.48809)">
        <g
           style="fill:#ffffec;fill-opacity:1"
           transform="translate(7.5595238,-3.0238095)"
           id="g4559">
          <path
             style="opacity:1;fill:#ffffec;fill-opacity:1;stroke:#404040;stroke-width:2.5;stroke-linecap:butt;stroke-linejoin:miter;stroke-miterlimit:4;stroke-dasharray:none;stroke-opacity:1"
             d="m 193.94306,41.689857 10.59567,-6.475133 c 33.35412,-2.57433 57.16056,9.220913 79.5543,25.435824 l -5.97323,5.173901 C 258.17796,48.647871 196.78791,36.818341 193.94306,41.689857 Z"
             id="path4555"
             inkscape:connector-curvature="0"
             sodipodi:nodetypes="ccccc" />
          <path
             style="fill:#ffffec;fill-opacity:1;stroke:#404040;stroke-width:2.5;stroke-linecap:butt;stroke-linejoin:miter;stroke-miterlimit:4;stroke-dasharray:none;stroke-opacity:1"
             d="m 193.94306,41.689857 c -12.29773,29.418903 45.09905,21.52086 84.17674,24.13459"
             id="path4557"
             inkscape:connector-curvature="0"
             sodipodi:nodetypes="cc" />
        </g>
      </g>
      <path
         inkscape:connector-curvature="0"
         id="path4609"
         d="m 283.15345,184.93601 c -8.96067,-6.45019 -25.46869,-13.01457 -45.01883,-17.90165 -11.31876,-2.82942 -23.74927,-4.99317 -28.68529,-4.99317 -0.94554,0 -1.39296,-0.10233 -1.32598,-0.30328 0.0556,-0.1668 1.10595,-0.91849 2.33412,-1.67043 l 2.23303,-1.36716 6.4962,-0.0941 c 3.57291,-0.0517 8.15526,0.0424 10.183,0.20929 15.91048,1.30915 29.99109,5.8481 45.28714,14.59851 3.82082,2.18577 14.92715,9.45602 14.92715,9.77136 0,0.24379 -3.71157,3.45228 -3.95745,3.42103 -0.10186,-0.0129 -1.21475,-0.76464 -2.47309,-1.67043 z"
         style="fill:#a0a0a0;stroke:none;stroke-width:0.26726952" />
    </g>
    <g
       id="g4628"
       transform="matrix(0.9074101,0,0,0.9074101,14.315708,-7.8806725)">
      <g
         style="fill:#ffffec;fill-opacity:1"
         transform="translate(0.75595238,188.23214)"
         id="g4553">
        <g
           style="fill:#ffffec;fill-opacity:1"
           id="g4548"
           transform="translate(7.5595238,-3.0238095)">
          <path
             sodipodi:nodetypes="ccccc"
             inkscape:connector-curvature="0"
             id="path4542"
             d="m 193.94306,41.689857 10.59567,-6.475133 c 33.35412,-2.57433 57.16056,9.220913 79.5543,25.435824 l -5.97323,5.173901 C 258.17796,48.647871 196.78791,36.818341 193.94306,41.689857 Z"
             style="opacity:1;fill:#ffffec;fill-opacity:1;stroke:#404040;stroke-width:2.5;stroke-linecap:butt;stroke-linejoin:miter;stroke-miterlimit:4;stroke-dasharray:none;stroke-opacity:1" />
          <path
             sodipodi:nodetypes="cc"
             inkscape:connector-curvature="0"
             id="path4544"
             d="m 193.94306,41.689857 c -12.29773,29.418903 45.09905,21.52086 84.17674,24.13459"
             style="fill:#ffffec;fill-opacity:1;stroke:#404040;stroke-width:2.5;stroke-linecap:butt;stroke-linejoin:miter;stroke-miterlimit:4;stroke-dasharray:none;stroke-opacity:1" />
        </g>
      </g>
      <path
         transform="matrix(0.26458333,0,0,0.26458333,0,-41.666683)"
         inkscape:connector-curvature="0"
         id="path4611"
         d="m 1079.8155,1098.4364 c -9.009,-8.6678 -47.2219,-29.1226 -75.2283,-40.2684 -61.46724,-24.4624 -144.73706,-45.3204 -202.44076,-50.7088 -6.05925,-0.5658 -11.21866,-1.2306 -11.46537,-1.4773 -0.92537,-0.9254 0.93346,-2.4741 8.06928,-6.72285 l 7.34184,-4.37145 13.63706,-0.8432 c 15.8685,-0.98119 39.87593,-0.24464 60.45086,1.85463 56.89944,5.80547 113.09594,25.42317 168.85379,58.94527 18.7087,11.2479 48.6818,31.3469 48.273,32.3703 -0.3702,0.9267 -14.2524,13.0976 -14.9661,13.1211 -0.2932,0.01 -1.4296,-0.845 -2.5253,-1.8993 z"
         style="fill:#a0a0a0;stroke:none;stroke-width:1.01015258" />
      <path
         transform="matrix(0.26458333,0,0,0.26458333,0,-41.666683)"
         inkscape:connector-curvature="0"
         id="path4613"
         d="m 972.55847,1099.7282 c -107.0443,-1.859 -143.4301,-5.3164 -173.5597,-16.492 -31.18734,-11.5679 -42.88318,-31.6101 -33.67563,-57.707 1.58202,-4.484 2.26387,-8.8139 1.51523,-9.6221 -0.74864,-0.8082 10.00305,-0.9282 23.89265,-0.2668 58.156,2.7695 156.07125,27.0714 221.02668,54.8574 22.6696,9.6973 48.4418,23.373 53.6627,28.4753 2.5807,2.5221 2.1939,2.8477 -3.0305,2.5512 -3.2938,-0.187 -43.718,-0.9951 -89.83143,-1.796 z"
         style="fill:#ff5555;stroke:none;stroke-width:2.02030516" />
    </g>
    <text
       xml:space="preserve"
       style="font-style:normal;font-variant:normal;font-weight:bold;font-stretch:normal;font-size:30.1764946px;line-height:1.25;font-family:'Yu Gothic';-inkscape-font-specification:'Yu Gothic Bold';letter-spacing:0px;word-spacing:0px;fill:#404040;fill-opacity:1;stroke:none;stroke-width:0.94301546"
       x="101.9045"
       y="268.90894"
       id="text4651"><tspan
         sodipodi:role="line"
         id="tspan4649"
         x="101.9045"
         y="268.90894"
         style="fill:#404040;fill-opacity:1;stroke-width:0.94301546">？</tspan></text>
    <g
       transform="matrix(0.9074101,0,0,0.9074101,155.62512,125.35907)"
       id="g4665">
      <g
         id="g4671">
        <path
           inkscape:connector-curvature="0"
           id="path4659"
           d="M -77.623374,-23.203271 V 6.278879"
           style="fill:none;stroke:#404040;stroke-width:3;stroke-linecap:butt;stroke-linejoin:miter;stroke-miterlimit:4;stroke-dasharray:none;stroke-opacity:1" />
        <path
           style="fill:none;stroke:#404040;stroke-width:3;stroke-linecap:butt;stroke-linejoin:miter;stroke-miterlimit:4;stroke-dasharray:none;stroke-opacity:1"
           d="M -68.00167,-23.203271 V 6.278879"
           id="path4667"
           inkscape:connector-curvature="0" />
      </g>
    </g>
    <text
       xml:space="preserve"
       style="font-style:normal;font-variant:normal;font-weight:bold;font-stretch:normal;font-size:57.23936081px;line-height:1.25;font-family:'Yu Gothic';-inkscape-font-specification:'Yu Gothic Bold';letter-spacing:0px;word-spacing:0px;display:inline;fill:#404040;fill-opacity:1;stroke:none;stroke-width:1.78873003"
       x="142.11537"
       y="95.680054"
       id="text4528-4"
       transform="matrix(0.86341292,0.01895416,-0.02541312,1.1576365,0,0)"><tspan
         sodipodi:role="line"
         id="tspan4526-6"
         x="142.11537"
         y="95.680054"
         style="fill:#404040;fill-opacity:1;stroke-width:1.78873003">≡</tspan></text>
    <text
       xml:space="preserve"
       style="font-style:normal;font-variant:normal;font-weight:bold;font-stretch:normal;font-size:57.23936081px;line-height:1.25;font-family:'Yu Gothic';-inkscape-font-specification:'Yu Gothic Bold';letter-spacing:0px;word-spacing:0px;display:inline;fill:#404040;fill-opacity:1;stroke:none;stroke-width:1.78873003"
       x="143.60686"
       y="146.35422"
       id="text4528-8"
       transform="matrix(0.86341292,0.01895416,-0.02541312,1.1576365,0,0)"><tspan
         sodipodi:role="line"
         id="tspan4526-4"
         x="143.60686"
         y="146.35422"
         style="fill:#404040;fill-opacity:1;stroke-width:1.78873003">≡</tspan></text>
    <text
       xml:space="preserve"
       style="font-style:normal;font-variant:normal;font-weight:bold;font-stretch:normal;font-size:57.23936081px;line-height:1.25;font-family:'Yu Gothic';-inkscape-font-specification:'Yu Gothic Bold';letter-spacing:0px;word-spacing:0px;display:inline;fill:#404040;fill-opacity:1;stroke:none;stroke-width:1.78873003"
       x="145.0244"
       y="194.51566"
       id="text4528-9"
       transform="matrix(0.86341292,0.01895416,-0.02541312,1.1576365,0,0)"><tspan
         sodipodi:role="line"
         id="tspan4526-1"
         x="145.0244"
         y="194.51566"
         style="fill:#404040;fill-opacity:1;stroke-width:1.78873003">≡</tspan></text>
    <rect
       style="opacity:1;fill:none;fill-opacity:1;stroke:#404040;stroke-width:3.21527433;stroke-miterlimit:4;stroke-dasharray:none;stroke-opacity:1"
       id="rect851"
       width="116.79779"
       height="59.177246"
       x="58.799942"
       y="175.26062" />
  </g>
</svg>
